<svg xmlns="http://www.w3.org/2000/svg" xmlns:xlink="http://www.w3.org/1999/xlink"><defs><symbol viewBox="0 0 32 32" id="angle-double-right-solid"><path d="M9.094 4.781L7.688 6.22 17.468 16l-9.78 9.781 1.406 1.438L20.313 16zm7 0L14.687 6.22 24.47 16l-9.782 9.781 1.407 1.438L27.312 16z"/></symbol><symbol viewBox="0 0 32 32" id="angle-down"><path d="M4.219 10.781L2.78 12.22l12.5 12.5.719.687.719-.687 12.5-12.5-1.438-1.438L16 22.562z"/></symbol><symbol viewBox="0 0 32 32" id="angle-left"><path d="M19.031 4.281l-11 11-.687.719.687.719 11 11 1.438-1.438L10.187 16 20.47 5.719z"/></symbol><symbol viewBox="0 0 32 32" id="angle-right"><path d="M12.969 4.281L11.53 5.72 21.812 16l-10.28 10.281 1.437 1.438 11-11 .687-.719-.687-.719z"/></symbol><symbol viewBox="0 0 32 32" id="angle-up"><path d="M16 6.594l-.719.687-12.5 12.5L4.22 21.22 16 9.437 27.781 21.22l1.438-1.438-12.5-12.5z"/></symbol><symbol viewBox="0 0 32 32" id="arrow-circle-right"><path d="M16 3C8.832 3 3 8.832 3 16s5.832 13 13 13 13-5.832 13-13S23.168 3 16 3zm0 2c6.086 0 11 4.914 11 11s-4.914 11-11 11S5 22.086 5 16 9.914 5 16 5zm.719 4.594L15.28 11l4 4H9v2h10.281l-4 4 1.438 1.406L23.125 16z"/></symbol><symbol viewBox="0 0 32 32" id="arrow-left"><path d="M13.281 6.781l-8.5 8.5-.687.719.687.719 8.5 8.5 1.438-1.438L7.938 17H28v-2H7.937l6.782-6.781z"/></symbol><symbol viewBox="0 0 32 32" id="arrow-right"><path d="M18.719 6.781L17.28 8.22 24.063 15H4v2h20.063l-6.782 6.781 1.438 1.438 8.5-8.5.687-.719-.687-.719z"/></symbol><symbol viewBox="0 0 32 32" id="bars"><path d="M4 7v2h24V7zm0 8v2h24v-2zm0 8v2h24v-2z"/></symbol><symbol viewBox="0 0 32 32" id="calendar-day"><path d="M9 4v1H5v22h22V5h-4V4h-2v1H11V4zM7 7h2v1h2V7h10v1h2V7h2v2H7zm0 4h18v14H7zm6 2v2h2v-2zm4 0v2h2v-2zm4 0v2h2v-2zm-5 3v4h4v-4zm-7 1v2h2v-2zm4 0v2h2v-2zm8 0v2h2v-2zM9 21v2h2v-2zm4 0v2h2v-2zm4 0v2h2v-2z"/></symbol><symbol viewBox="0 0 32 32" id="cart-plus"><path d="M4 7c-.55 0-1 .45-1 1s.45 1 1 1h2.219l2.625 10.5c.222.89 1.02 1.5 1.937 1.5H23.25c.902 0 1.668-.598 1.906-1.469L27.75 10h-2.094l-2.406 9H10.781L8.156 8.5A1.983 1.983 0 006.22 7zm18 14c-1.645 0-3 1.355-3 3s1.355 3 3 3 3-1.355 3-3-1.355-3-3-3zm-9 0c-1.645 0-3 1.355-3 3s1.355 3 3 3 3-1.355 3-3-1.355-3-3-3zm3-14v3h-3v2h3v3h2v-3h3v-2h-3V7zm-3 16c.563 0 1 .438 1 1 0 .563-.438 1-1 1-.563 0-1-.438-1-1 0-.563.438-1 1-1zm9 0c.563 0 1 .438 1 1 0 .563-.438 1-1 1-.563 0-1-.438-1-1 0-.563.438-1 1-1z"/></symbol><symbol viewBox="0 0 32 32" id="certificate-solid"><path d="M16 3c-.625 0-1.246.21-1.781.594L12.563 4.75 10.655 5h-.031l-.031.031A3.394 3.394 0 008.03 7.594L8 7.625v.031l-.25 1.938-1.156 1.5-.032.031v.031c-.699 1.117-.73 2.559.032 3.625l1.187 1.656.313 1.72-3.219 4.905-1.031 1.532h4.781l1.156 2.687L10.5 29l1.031-1.563 3.156-4.75c.848.348 1.805.38 2.626 0l3.156 4.75L21.5 29l.719-1.719 1.156-2.687h4.781l-1.031-1.532L24 18.313l.25-1.875 1.156-1.656.032-.031v-.031c.699-1.117.73-2.528-.032-3.594L24.25 9.469l-.375-1.875h.031c-.004-.024-.027-.04-.031-.063-.18-1.308-1.215-2.37-2.531-2.531h-.032l-1.875-.25-1.656-1.156A3.074 3.074 0 0016 3zm0 2.031c.23 0 .457.07.625.188L18.406 6.5l.219.156.25.032L21.063 7h.03c.45.05.762.363.813.813v.062l.407 2.219.03.219.157.187 1.281 1.781c.239.332.27.895-.031 1.375l-1.406 1.969-.032.25L22 18.063v.03a.994.994 0 01-.156.438l-.063.032v.03a.88.88 0 01-.593.313h-.063l-2.281.407-.25.03-.188.157-1.781 1.281c-.332.239-.926.27-1.406-.031l-1.625-1.25-.188-.156-.281-.032L10.937 19h-.03a.885.885 0 01-.688-.438.99.99 0 01-.125-.375v-.062l-.406-2.281-.032-.25-.156-.188-1.281-1.781c-.239-.332-.27-.926.031-1.406l1.25-1.625.156-.188.031-.281.282-2.094c.004-.015.027-.015.031-.031a1.394 1.394 0 011-1c.016-.004.016-.027.031-.031l2.094-.282.25-.03.219-.157 1.781-1.281c.168-.117.395-.188.625-.188zm6.906 15.219l1.532 2.344H22.03l-.25.625-.687 1.593-2.125-3.25.468-.343 1.97-.344v.031c.023-.004.038-.027.062-.031a2.97 2.97 0 001.437-.625zm-13.812.031a2.85 2.85 0 001.562.719h.031l1.907.25.437.344-2.125 3.218-.687-1.593-.25-.625H7.563z"/></symbol><symbol viewBox="0 0 32 32" id="check-square-solid"><path d="M4 4v24h24V12.187l-2 2V26H6V6h19.813l2-2zm23.281 3.281L16 18.563l-4.281-4.282-1.438 1.438 5 5 .719.687.719-.687 12-12z"/></symbol><symbol viewBox="0 0 32 32" id="circle"><path d="M16 4C9.383 4 4 9.383 4 16s5.383 12 12 12 12-5.383 12-12S22.617 4 16 4zm0 2c5.535 0 10 4.465 10 10s-4.465 10-10 10S6 21.535 6 16 10.465 6 16 6z"/></symbol><symbol viewBox="0 0 32 32" id="clipboard-check"><path d="M16 2c-1.258 0-2.152.89-2.594 2H5v25h22V4h-8.406C18.152 2.89 17.258 2 16 2zm0 2c.555 0 1 .445 1 1v1h3v2h-8V6h3V5c0-.555.445-1 1-1zM7 6h3v4h12V6h3v21H7zm14.281 7.281L15 19.562l-3.281-3.28-1.438 1.437 4 4 .719.687.719-.687 7-7z"/></symbol><symbol viewBox="0 0 32 32" id="clipboard-list"><path d="M16 2c-1.26 0-2.15.89-2.59 2H5v25h22V4h-8.41c-.44-1.11-1.33-2-2.59-2zm0 2c.55 0 1 .45 1 1v1h3v2h-8V6h3V5c0-.55.45-1 1-1zM7 6h3v4h12V6h3v21H7V6zm2 7v2h2v-2H9zm4 0v2h10v-2H13zm-4 4v2h2v-2H9zm4 0v2h10v-2H13zm-4 4v2h2v-2H9zm4 0v2h10v-2H13z"/></symbol><symbol viewBox="0 0 32 32" id="clock"><path d="M16 4C9.383 4 4 9.383 4 16s5.383 12 12 12 12-5.383 12-12S22.617 4 16 4zm0 2c5.535 0 10 4.465 10 10s-4.465 10-10 10S6 21.535 6 16 10.465 6 16 6zm-1 2v9h7v-2h-5V8z"/></symbol><symbol viewBox="0 0 32 32" id="credit-card"><path d="M5 6C3.355 6 2 7.355 2 9v14c0 1.645 1.355 3 3 3h22c1.645 0 3-1.355 3-3V9c0-1.645-1.355-3-3-3zm0 2h22c.566 0 1 .434 1 1v2H5v2h23v10c0 .566-.434 1-1 1H5c-.566 0-1-.434-1-1V9c0-.566.434-1 1-1z"/></symbol><symbol viewBox="0 0 32 32" id="dollar-sign"><path d="M15 3v2.094C12.164 5.57 10 8.05 10 11c0 1.777.832 3.148 1.938 4.031 1.105.883 2.437 1.375 3.687 1.875s2.418 1.008 3.188 1.625C19.581 19.148 20 19.773 20 21c0 2.156-1.793 4-4 4-2.219 0-4-1.781-4-4v-1h-2v1c0 2.965 2.164 5.43 5 5.906V29h2v-2.094c2.844-.48 5-2.98 5-5.906 0-1.781-.832-3.145-1.938-4.031-1.105-.887-2.437-1.407-3.687-1.907s-2.418-.98-3.188-1.593C12.418 12.855 12 12.219 12 11c0-2.191 1.785-4 4-4 2.219 0 4 1.781 4 4v1h2v-1c0-2.965-2.164-5.43-5-5.906V3z"/></symbol><symbol viewBox="0 0 32 32" id="dot-circle"><path d="M16 4C9.383 4 4 9.383 4 16s5.383 12 12 12 12-5.383 12-12S22.617 4 16 4zm0 2c5.535 0 10 4.465 10 10s-4.465 10-10 10S6 21.535 6 16 10.465 6 16 6zm0 7a3 3 0 10.002 6.002A3 3 0 0016 13z"/></symbol><symbol viewBox="0 0 32 32" id="ellipsis-h"><path d="M6 14a1.999 1.999 0 100 4 1.999 1.999 0 100-4zm10 0a1.999 1.999 0 100 4 1.999 1.999 0 100-4zm10 0a1.999 1.999 0 100 4 1.999 1.999 0 100-4z"/></symbol><symbol viewBox="0 0 32 32" id="envelope-open-text"><path d="M10 5v1.9l-5.992 3.903V27h23.984V10.803L22 6.898V5H10zm2 2h8v7.682l-4 2.591-4-2.591V7zm1 2v2h6V9h-6zm-3 .285v4.102l-3.156-2.045L10 9.285zm12 0l3.156 2.057L22 13.387V9.285zM13 12v2h6v-2h-6zm-6.992 1.184L16 19.656l9.992-6.472V25H6.008V13.184z"/></symbol><symbol viewBox="0 0 32 32" id="exclamation-triangle"><path d="M16 3.219l-.875 1.5-12 20.781-.844 1.5H29.72l-.844-1.5-12-20.781zm0 4L26.25 25H5.75zM15 14v6h2v-6zm0 7v2h2v-2z"/></symbol><symbol viewBox="0 0 32 32" id="external-link-square-alt-solid"><path d="M5 5v22h22V5zm2 2h18v18H7zm6 3v2h5.563L9.28 21.281l1.438 1.438L20 13.437V19h2v-9z"/></symbol><symbol viewBox="0 0 32 32" id="facebook"><path d="M16 4C9.384 4 4 9.384 4 16s5.384 12 12 12 12-5.384 12-12S22.616 4 16 4zm0 2c5.535 0 10 4.465 10 10a9.977 9.977 0 01-8.512 9.879v-6.963h2.848l.447-2.893h-3.295v-1.58c0-1.2.395-2.267 1.518-2.267h1.805V9.652c-.317-.043-.988-.136-2.256-.136-2.648 0-4.2 1.398-4.2 4.584v1.923h-2.722v2.893h2.722v6.938A9.975 9.975 0 016 16c0-5.535 4.465-10 10-10z"/></symbol><symbol viewBox="0 0 32 32" id="fire"><path d="M14.375 3l-.188.781c-.3 1.348-2.234 3.567-4.218 6.281C7.984 12.777 6 16.16 6 20.407c0 2.004.613 4.145 2.125 5.813C9.637 27.887 12.047 29 15.313 29c.144 0 .265-.027.406-.031.094.004.183.031.281.031.305 0 .59-.035.875-.063.086-.007.164-.023.25-.03 3.348-.278 5.57-1.31 6.938-2.845C25.668 24.262 26 21.977 26 20c0-4.465-2.57-8.617-5.063-11.688-2.492-3.07-5-5.093-5-5.093L15.658 3zM15.5 5.5c.809.71 2.172 1.996 3.875 4.094C21.727 12.492 24 16.332 24 20c0 1.754-.309 3.453-1.438 4.719-.242.273-.535.539-.875.781.54-1.559.422-3.332.063-5.094-.41-2.011-1.188-4.031-1.938-5.656s-1.39-2.773-1.937-3.406L17.594 11h-1.938l.375 1.281c1.047 3.403.496 5.719-.093 6.406-.293.344-.422.375-.72.282-.296-.094-.831-.48-1.343-1.438l-.75-1.406-.938 1.281c-1.87 2.52-2.59 5.282-1.968 7.594.054.203.14.402.219.594a6.031 6.031 0 01-.813-.719C8.508 23.645 8 22 8 20.406c0-3.62 1.703-6.57 3.594-9.156 1.539-2.105 3.039-3.883 3.906-5.75zm3.063 11.719c.464 1.176.968 2.363 1.218 3.593.364 1.79.356 3.426-.156 4.47-.383.78-.977 1.355-2.188 1.593-.132.027-.289.043-.437.063-.313.027-.656.05-1 .062-.09 0-.164.004-.25 0-2.164-.07-3.203-1.035-3.594-2.5-.324-1.207.098-2.89 1-4.594.446.461.918.797 1.469.969 1.02.32 2.156-.07 2.844-.875.59-.691.937-1.648 1.093-2.781z"/></symbol><symbol viewBox="0 0 32 32" id="gift"><path d="M12 5c-1.645 0-3 1.355-3 3 0 .352.074.684.188 1H4v6h1v13h22V15h1V9h-5.188A2.95 2.95 0 0023 8c0-1.645-1.355-3-3-3-1.75 0-2.938 1.328-3.719 2.438-.105.148-.187.292-.281.437-.094-.145-.176-.29-.281-.438C14.938 6.329 13.75 5 12 5zm0 2c.625 0 1.438.672 2.063 1.563.152.218.128.23.25.437H12c-.566 0-1-.434-1-1 0-.566.434-1 1-1zm8 0c.566 0 1 .434 1 1 0 .566-.434 1-1 1h-2.313c.122-.207.098-.219.25-.438C18.563 7.673 19.375 7 20 7zM6 11h20v2h-9v-1h-2v1H6zm1 4h18v11h-8V16h-2v10H7z"/></symbol><symbol viewBox="0 0 32 32" id="globe"><path d="M16 4C9.383 4 4 9.383 4 16s5.383 12 12 12 12-5.383 12-12S22.617 4 16 4zm0 2c1.969 0 3.797.586 5.344 1.563l-.813.093.188 2-1.063-.469-.875.75.157 2.063 2.156-.688 2.687.876-.687 1.25-1.625-1-1.75.25L18 13.967l-.969 3 1.938 1.595s1.988-.344 2.093-.344c.106 0 .844 1.812.844 1.812l-1.593 5c-1.301.621-2.77.969-4.313.969-.316 0-.629-.035-.938-.063l-1.093-1.906 1.062-4L11 17H7.281l-.968-1.969L9 12.906 13 11l-.594-2.656 1.719-.375.813 1.125 3-.563-.532-2.312-2.218-.157C15.453 6.043 15.726 6 16 6zm-1.125.063l-1.563.656-.75-.125a9.867 9.867 0 012.313-.532zM6.062 16.78l.97 1.125v2.063l1.874 2.062h1.156l2.844 3.5c-3.773-1.222-6.527-4.64-6.844-8.75z"/></symbol><symbol viewBox="0 0 32 32" id="headset"><path d="M16 3C9.953 3 5 7.953 5 14v6c0 1.293.844 2.395 2 2.813V23c0 2.746 2.254 5 5 5h1.281c.348.598.98 1 1.719 1h2c1.102 0 2-.898 2-2 0-1.102-.898-2-2-2h-2c-.738 0-1.371.402-1.719 1H12a3 3 0 01-3-3h2v-9H7c0-4.953 4.047-9 9-9s9 4.047 9 9h-4v9h3c1.645 0 3-1.355 3-3v-6c0-6.047-4.953-11-11-11zM7 16h2v5H8c-.555 0-1-.445-1-1zm16 0h2v4c0 .555-.445 1-1 1h-1z"/></symbol><symbol viewBox="0 0 32 32" id="heart"><path d="M9.5 5C5.363 5 2 8.402 2 12.5c0 1.43.648 2.668 1.25 3.563a9.25 9.25 0 001.219 1.468L15.28 28.375l.719.719.719-.719L27.53 17.531S30 15.355 30 12.5C30 8.402 26.637 5 22.5 5c-3.434 0-5.645 2.066-6.5 2.938C15.145 7.066 12.934 5 9.5 5zm0 2c2.988 0 5.75 2.906 5.75 2.906l.75.844.75-.844S19.512 7 22.5 7c3.043 0 5.5 2.496 5.5 5.5 0 1.543-1.875 3.625-1.875 3.625L16 26.25 5.875 16.125s-.484-.465-.969-1.188C4.422 14.216 4 13.274 4 12.5 4 9.496 6.457 7 9.5 7z"/></symbol><symbol viewBox="0 0 32 32" id="heart-solid"><path d="M22.5 5c-2.892 0-5.327 1.804-6.5 2.854C14.827 6.804 12.392 5 9.5 5 5.364 5 2 8.364 2 12.5c0 2.59 2.365 4.947 2.46 5.041L16 29.081l11.534-11.534C27.635 17.447 30 15.09 30 12.5 30 8.364 26.636 5 22.5 5z"/></symbol><symbol viewBox="0 0 32 32" id="history"><path d="M16 4A11.989 11.989 0 006 9.344V6H4v7h7v-2H7.375C9.102 8.02 12.297 6 16 6c5.535 0 10 4.465 10 10s-4.465 10-10 10S6 21.535 6 16H4c0 6.617 5.383 12 12 12s12-5.383 12-12S22.617 4 16 4zm-1 4v9h7v-2h-5V8z"/></symbol><symbol viewBox="0 0 32 32" id="info-circle"><path d="M16 3C8.832 3 3 8.832 3 16s5.832 13 13 13 13-5.832 13-13S23.168 3 16 3zm0 2c6.086 0 11 4.914 11 11s-4.914 11-11 11S5 22.086 5 16 9.914 5 16 5zm-1 5v2h2v-2zm0 4v8h2v-8z"/></symbol><symbol viewBox="0 0 32 32" id="instagram"><path d="M11.469 5C7.918 5 5 7.914 5 11.469v9.062C5 24.082 7.914 27 11.469 27h9.062C24.082 27 27 24.086 27 20.531V11.47C27 7.918 24.086 5 20.531 5zm0 2h9.062A4.463 4.463 0 0125 11.469v9.062A4.463 4.463 0 0120.531 25H11.47A4.463 4.463 0 017 20.531V11.47A4.463 4.463 0 0111.469 7zm10.437 2.188a.902.902 0 00-.906.906c0 .504.402.906.906.906a.902.902 0 00.907-.906.902.902 0 00-.907-.906zM16 10c-3.3 0-6 2.7-6 6s2.7 6 6 6 6-2.7 6-6-2.7-6-6-6zm0 2c2.223 0 4 1.777 4 4s-1.777 4-4 4-4-1.777-4-4 1.777-4 4-4z"/></symbol><symbol viewBox="0 0 24 24" id="label"><path d="M0 0h24v24H0V0z" fill="none"/><path d="M17.63 5.84C17.27 5.33 16.67 5 16 5L5 5.01C3.9 5.01 3 5.9 3 7v10c0 1.1.9 1.99 2 1.99L16 19c.67 0 1.27-.33 1.63-.84L22 12l-4.37-6.16zM16 17H5V7h11l3.55 5L16 17z"/></symbol><symbol viewBox="0 0 32 32" id="link"><path d="M21.75 4c-1.672 0-3.258.66-4.438 1.844l-1.468 1.468A6.252 6.252 0 0014 11.75c0 .793.152 1.566.438 2.281l1.624-1.625A4.285 4.285 0 0117.25 8.72l1.469-1.469A4.28 4.28 0 0121.75 6c1.137 0 2.195.445 3 1.25a4.274 4.274 0 010 6.031l-1.469 1.469A4.28 4.28 0 0120.25 16c-.223 0-.441-.023-.656-.063l-1.625 1.626A6.156 6.156 0 0020.25 18c1.672 0 3.258-.66 4.438-1.844l1.468-1.468A6.252 6.252 0 0028 10.25c0-1.672-.66-3.223-1.844-4.406A6.173 6.173 0 0021.75 4zm-2.469 7.281l-8 8 1.438 1.438 8-8zM11.75 14c-1.672 0-3.258.66-4.438 1.844l-1.468 1.469A6.252 6.252 0 004 21.75c0 1.672.66 3.223 1.844 4.406A6.173 6.173 0 0010.25 28c1.672 0 3.258-.66 4.438-1.844l1.468-1.468A6.252 6.252 0 0018 20.25c0-.793-.152-1.566-.438-2.281l-1.625 1.625a4.285 4.285 0 01-1.187 3.687l-1.469 1.469A4.28 4.28 0 0110.25 26a4.208 4.208 0 01-3-1.25 4.274 4.274 0 010-6.031l1.469-1.469A4.28 4.28 0 0111.75 16c.223 0 .441.023.656.063l1.625-1.625A6.156 6.156 0 0011.75 14z"/></symbol><symbol viewBox="0 0 32 32" id="list"><path d="M4 5v6h6V5zm2 2h2v2H6zm6 0v2h15V7zm-8 6v6h6v-6zm2 2h2v2H6zm6 0v2h15v-2zm-8 6v6h6v-6zm2 2h2v2H6zm6 0v2h15v-2z"/></symbol><symbol viewBox="0 0 32 32" id="map-marker"><path d="M16 3c-4.957 0-9 4.043-9 9 0 1.406.57 3.02 1.344 4.781.773 1.762 1.77 3.633 2.781 5.375a101.333 101.333 0 004.063 6.407L16 29.75l.813-1.188s2.039-2.917 4.062-6.406c1.012-1.742 2.008-3.613 2.781-5.375C24.43 15.02 25 13.406 25 12c0-4.957-4.043-9-9-9zm0 2c3.879 0 7 3.121 7 7 0 .8-.43 2.316-1.156 3.969-.727 1.652-1.73 3.484-2.719 5.187-1.57 2.711-2.547 4.145-3.125 5-.578-.855-1.555-2.289-3.125-5-.988-1.703-1.992-3.535-2.719-5.187C9.43 14.316 9 12.8 9 12c0-3.879 3.121-7 7-7zm0 5a1.999 1.999 0 100 4 1.999 1.999 0 100-4z"/></symbol><symbol viewBox="0 0 32 32" id="minus-circle"><path d="M16 3C8.832 3 3 8.832 3 16s5.832 13 13 13 13-5.832 13-13S23.168 3 16 3zm0 2c6.086 0 11 4.914 11 11s-4.914 11-11 11S5 22.086 5 16 9.914 5 16 5zm-6 10v2h12v-2z"/></symbol><symbol viewBox="0 0 32 32" id="money-bill"><path d="M2 7v17h28V7H2zm4 2h20a2 2 0 002 2v9a2 2 0 00-2 2H6a2 2 0 00-2-2v-9a2 2 0 002-2zm10 2c-2.211 0-4 2.016-4 4.5s1.789 4.5 4 4.5c2.211 0 4-2.016 4-4.5S18.211 11 16 11zm0 2c1.102 0 2 1.121 2 2.5s-.898 2.5-2 2.5c-1.102 0-2-1.121-2-2.5s.898-2.5 2-2.5zm-7.5 1a1.5 1.5 0 10.001 3.001A1.5 1.5 0 008.5 14zm15 0a1.5 1.5 0 10.001 3.001A1.5 1.5 0 0023.5 14z"/></symbol><symbol viewBox="0 0 32 32" id="paper-plane"><path d="M3.594 5.344l.437 1.875L5.97 16 4.03 24.781l-.437 1.875 1.781-.718 22-9L29.656 16l-2.281-.938-22-9zm2.781 3.312L21.906 15H7.781zM7.781 17h14.125L6.375 23.344z"/></symbol><symbol viewBox="0 0 32 32" id="pen"><path d="M23.906 3.969A4.097 4.097 0 0021 5.188L5.187 21l-.062.313-1.094 5.5-.312 1.468 1.469-.312 5.5-1.094.312-.063L26.813 11a4.075 4.075 0 000-5.813 4.097 4.097 0 00-2.907-1.218zm0 1.906c.504 0 1.012.23 1.5.719.973.972.973 2.027 0 3l-.718.687-2.97-2.969.688-.718c.489-.489.996-.719 1.5-.719zm-3.593 2.844l2.968 2.969L11.188 23.78a6.813 6.813 0 00-2.97-2.968zM6.938 22.438a4.734 4.734 0 012.625 2.625l-3.282.656z"/></symbol><symbol viewBox="0 0 32 32" id="pinterest-p"><path d="M16.094 4C11.017 4 6 7.383 6 12.861c0 3.483 1.958 5.463 3.146 5.463.49 0 .774-1.366.774-1.752 0-.46-1.174-1.44-1.174-3.355 0-3.978 3.028-6.797 6.947-6.797 3.37 0 5.864 1.914 5.864 5.432 0 2.627-1.055 7.554-4.47 7.554-1.231 0-2.284-.89-2.284-2.166 0-1.87 1.197-3.681 1.197-5.611 0-3.276-4.537-2.682-4.537 1.277 0 .831.104 1.751.475 2.508C11.255 18.354 10 23.037 10 26.066c0 .935.134 1.855.223 2.791.168.188.084.169.341.075 2.494-3.414 2.263-4.388 3.391-8.856.61 1.158 2.183 1.781 3.43 1.781 5.255 0 7.615-5.12 7.615-9.738C25 7.206 20.755 4 16.094 4z"/></symbol><symbol viewBox="0 0 32 32" id="plane"><path d="M16 3c-1.645 0-3 1.355-3 3v7.344l-8.406 3.75-.594.25v4.781l9-1v1.844l-2.563 1.718-.437.282v4.25l1.188-.25L16 28l4.813.969 1.187.25v-4.25l-.438-.282L19 22.97v-1.844l9 1v-4.781l-.594-.25L19 13.344V6c0-1.645-1.355-3-3-3zm0 2c.566 0 1 .434 1 1v8.656l.594.25L26 18.656v1.219l-9-1v5.188l.438.28L20 26.064v.718l-3.813-.75L16 25.97l-.188.062-3.812.75v-.718l2.563-1.72.437-.28v-5.188l-9 1v-1.219l8.406-3.75.594-.25V6c0-.566.434-1 1-1z"/></symbol><symbol viewBox="0 0 32 32" id="plus-circle"><path d="M16 3C8.832 3 3 8.832 3 16s5.832 13 13 13 13-5.832 13-13S23.168 3 16 3zm0 2c6.086 0 11 4.914 11 11s-4.914 11-11 11S5 22.086 5 16 9.914 5 16 5zm-1 5v5h-5v2h5v5h2v-5h5v-2h-5v-5z"/></symbol><symbol viewBox="0 0 32 32" id="question-circle"><path d="M16 4C9.383 4 4 9.383 4 16s5.383 12 12 12 12-5.383 12-12S22.617 4 16 4zm0 2c5.535 0 10 4.465 10 10s-4.465 10-10 10S6 21.535 6 16 10.465 6 16 6zm0 4c-2.2 0-4 1.8-4 4h2c0-1.117.883-2 2-2s2 .883 2 2a1.78 1.78 0 01-1.219 1.688l-.406.124A2.02 2.02 0 0015 17.72V19h2v-1.281l.406-.125A3.807 3.807 0 0020 14c0-2.2-1.8-4-4-4zm-1 10v2h2v-2z"/></symbol><symbol viewBox="0 0 32 32" id="reply"><path d="M12.281 5.281l-8 8-.687.719.687.719 8 8 1.438-1.438L7.438 15H21c2.773 0 5 2.227 5 5s-2.227 5-5 5v2c3.855 0 7-3.145 7-7s-3.145-7-7-7H7.437l6.282-6.281z"/></symbol><symbol viewBox="0 0 32 32" id="search"><path d="M19 3C13.488 3 9 7.488 9 13c0 2.395.84 4.59 2.25 6.313L3.281 27.28 4.72 28.72l7.968-7.969A9.922 9.922 0 0019 23c5.512 0 10-4.488 10-10S24.512 3 19 3zm0 2c4.43 0 8 3.57 8 8s-3.57 8-8 8-8-3.57-8-8 3.57-8 8-8z"/></symbol><symbol viewBox="0 0 32 32" id="search-plus-solid"><path d="M19 3C13.488 3 9 7.488 9 13c0 2.395.84 4.59 2.25 6.313L3.281 27.28 4.72 28.72l7.968-7.969A9.922 9.922 0 0019 23c5.512 0 10-4.488 10-10S24.512 3 19 3zm0 2c4.43 0 8 3.57 8 8s-3.57 8-8 8-8-3.57-8-8 3.57-8 8-8zm-1 4v3h-3v2h3v3h2v-3h3v-2h-3V9z"/></symbol><symbol viewBox="0 0 32 32" id="shopping-cart"><path d="M5 7c-.55 0-1 .45-1 1s.45 1 1 1h2.219l2.625 10.5c.222.89 1.02 1.5 1.937 1.5H23.25c.902 0 1.668-.598 1.906-1.469L27.75 10H11l.5 2h13.656l-1.906 7H11.781L9.156 8.5A1.983 1.983 0 007.22 7zm17 14c-1.645 0-3 1.355-3 3s1.355 3 3 3 3-1.355 3-3-1.355-3-3-3zm-9 0c-1.645 0-3 1.355-3 3s1.355 3 3 3 3-1.355 3-3-1.355-3-3-3zm0 2c.563 0 1 .438 1 1 0 .563-.438 1-1 1-.563 0-1-.438-1-1 0-.563.438-1 1-1zm9 0c.563 0 1 .438 1 1 0 .563-.438 1-1 1-.563 0-1-.438-1-1 0-.563.438-1 1-1z"/></symbol><symbol viewBox="0 0 32 32" id="sign-out"><path d="M16 4C9.383 4 4 9.383 4 16s5.383 12 12 12c4.05 0 7.64-2.012 9.813-5.094l-1.625-1.156A9.985 9.985 0 0116 26c-5.535 0-10-4.465-10-10S10.465 6 16 6a9.99 9.99 0 018.188 4.25l1.625-1.156A11.987 11.987 0 0016 4zm7.344 7.281l-1.438 1.438L24.188 15H12v2h12.188l-2.282 2.281 1.438 1.438 4-4L28.03 16l-.687-.719z"/></symbol><symbol viewBox="0 0 32 32" id="square"><path d="M6 6v20h20V6zm2 2h16v16H8z"/></symbol><symbol viewBox="0 0 32 32" id="square-full"><path d="M6 6v20h20V6H6z"/></symbol><symbol viewBox="0 0 32 32" id="star-solid"><path d="M30.336 12.547l-10.172-1.074L16 2.133l-4.164 9.34-10.172 1.074 7.598 6.848L7.14 29.398 16 24.29l8.86 5.11-2.122-10.004z"/></symbol><symbol viewBox="0 0 32 32" id="stopwatch"><path d="M13 4v2h6V4zm3 3C9.937 7 5 11.938 5 18c0 6.063 4.938 11 11 11 6.063 0 11-4.938 11-11 0-2.918-1.137-5.59-3-7.563l1.719-1.718L24.28 7.28 22.47 9.094A10.966 10.966 0 0016 7zm0 2c4.98 0 9 4.02 9 9s-4.02 9-9 9-9-4.02-9-9 4.02-9 9-9zm-1 2v5.281c-.598.348-1 .98-1 1.719 0 .738.402 1.371 1 1.719V21h2v-1.281c.598-.348 1-.98 1-1.719 0-.738-.402-1.371-1-1.719V11z"/></symbol><symbol viewBox="0 0 32 32" id="store"><path d="M4 4v3.656l-3 4V12c0 1.645 1.355 3 3 3v13h24V15c1.645 0 3-1.355 3-3v-.344l-3-4V4H4zm2 2h20v1H6V6zm-.5 3h21l2.406 3.219c-.109.433-.437.781-.906.781-.555 0-1-.445-1-1h-2c0 .555-.445 1-1 1-.555 0-1-.445-1-1h-2c0 .555-.445 1-1 1-.555 0-1-.445-1-1h-2c0 .555-.445 1-1 1-.555 0-1-.445-1-1h-2c0 .555-.445 1-1 1-.555 0-1-.445-1-1H9c0 .555-.445 1-1 1-.555 0-1-.445-1-1H5c0 .555-.445 1-1 1-.469 0-.797-.348-.906-.781L5.5 9zm.5 5.219c.531.48 1.234.781 2 .781s1.469-.301 2-.781c.531.48 1.234.781 2 .781s1.469-.301 2-.781c.531.48 1.234.781 2 .781s1.469-.301 2-.781c.531.48 1.234.781 2 .781s1.469-.301 2-.781c.531.48 1.234.781 2 .781s1.469-.301 2-.781V21H6v-6.781zM6 23h20v3H6v-3z"/></symbol><symbol viewBox="0 0 32 32" id="sync"><path d="M16 4c-5.113 0-9.383 3.16-11.125 7.625l1.844.75C8.176 8.641 11.71 6 16 6c3.242 0 6.133 1.59 7.938 4H20v2h7V5h-2v3.094A11.938 11.938 0 0016 4zm9.281 15.625C23.824 23.359 20.29 26 16 26c-3.277 0-6.156-1.613-7.969-4H12v-2H5v7h2v-3.094C9.188 26.386 12.395 28 16 28c5.113 0 9.383-3.16 11.125-7.625z"/></symbol><symbol viewBox="0 0 32 32" id="tags"><path d="M14.594 4l-.313.281-11 11-.687.719.687.719 9 9 .719.687.719-.687 11-11 .281-.313V4zm.844 2H23v7.563l-10 10L5.437 16zM26 7v2h1v8.156l-9.5 9.438-1.25-1.25-1.406 1.406 1.937 1.969.719.687.688-.687 10.53-10.407L29 18V7zm-6 1c-.55 0-1 .45-1 1s.45 1 1 1 1-.45 1-1-.45-1-1-1z"/></symbol><symbol viewBox="0 0 32 32" id="thumbs-up"><path d="M16.688 3l-.313.281L9.594 10H5v16h16.844c1.41 0 2.64-.996 2.937-2.375l2.157-10C27.331 11.777 25.887 10 24 10h-5.75l.188-.75c.203-.156.332-.223.625-.625.468-.64.937-1.633.937-2.969C20 4.23 18.71 3 17.094 3zm.718 2.094c.422.082.594.254.594.562 0 .903-.273 1.461-.531 1.813-.258.351-.438.437-.438.437l-.343.188-.125.406-.594 2.25-.313 1.25H24c.66 0 1.105.574.969 1.219l-2.125 10c-.102.468-.524.781-1 .781H11V11.406zM7 12h2v12H7z"/></symbol><symbol viewBox="0 0 32 32" id="times"><path d="M7.219 5.781L5.78 7.22 14.563 16 5.78 24.781 7.22 26.22 16 17.437l8.781 8.782 1.438-1.438L17.437 16l8.782-8.781L24.78 5.78 16 14.563z"/></symbol><symbol viewBox="0 0 32 32" id="trash"><path d="M14 4c-.523 0-1.059.184-1.438.563C12.184 4.94 12 5.476 12 6v1H5v2h1.094L8 27.094l.094.906h15.812l.094-.906L25.906 9H27V7h-7V6c0-.523-.184-1.059-.563-1.438C19.06 4.184 18.523 4 18 4zm0 2h4v1h-4zM8.125 9h15.75l-1.781 17H9.906zM12 12v11h2V12zm3 0v11h2V12zm3 0v11h2V12z"/></symbol><symbol viewBox="0 0 32 32" id="truck"><path d="M1 4v21h3.156c.446 1.719 1.992 3 3.844 3 1.852 0 3.398-1.281 3.844-3h8.312c.446 1.719 1.992 3 3.844 3 1.852 0 3.398-1.281 3.844-3H31V14.594l-.281-.313-6-6L24.406 8H19V4zm2 2h14v17h-5.156c-.446-1.719-1.992-3-3.844-3-1.852 0-3.398 1.281-3.844 3H3zm16 4h4.563L29 15.438V23h-1.156c-.446-1.719-1.992-3-3.844-3-1.852 0-3.398 1.281-3.844 3H19zM8 22c1.117 0 2 .883 2 2s-.883 2-2 2-2-.883-2-2 .883-2 2-2zm16 0c1.117 0 2 .883 2 2s-.883 2-2 2-2-.883-2-2 .883-2 2-2z"/></symbol><symbol viewBox="0 0 32 32" id="user"><path d="M16 5c-3.855 0-7 3.145-7 7 0 2.41 1.23 4.55 3.094 5.813C8.527 19.343 6 22.883 6 27h2c0-4.43 3.57-8 8-8s8 3.57 8 8h2c0-4.117-2.527-7.656-6.094-9.188A7.024 7.024 0 0023 12c0-3.855-3.145-7-7-7zm0 2c2.773 0 5 2.227 5 5s-2.227 5-5 5-5-2.227-5-5 2.227-5 5-5z"/></symbol><symbol viewBox="0 0 32 32" id="user-check"><path d="M12 2C8.145 2 5 5.145 5 9c0 2.41 1.23 4.55 3.094 5.813C4.527 16.343 2 19.883 2 24h2c0-4.43 3.57-8 8-8 1.375 0 2.656.36 3.781.969A8.007 8.007 0 0014 22c0 4.406 3.594 8 8 8 4.406 0 8-3.594 8-8 0-4.406-3.594-8-8-8a7.964 7.964 0 00-4.688 1.531 10.134 10.134 0 00-1.406-.719A7.024 7.024 0 0019 9c0-3.855-3.145-7-7-7zm0 2c2.773 0 5 2.227 5 5s-2.227 5-5 5-5-2.227-5-5 2.227-5 5-5zm10 12c3.324 0 6 2.676 6 6s-2.676 6-6 6-6-2.676-6-6 2.676-6 6-6zm3.281 3.281L22 22.563l-2.281-2.282-1.438 1.438 3 3 .719.687.719-.687 4-4z"/></symbol><symbol viewBox="0 0 32 32" id="wallet"><path d="M22.969 4a2.177 2.177 0 00-.469.063L6.25 8.343A3.024 3.024 0 004 11.25V25c0 1.645 1.355 3 3 3h18c1.645 0 3-1.355 3-3V12c0-1.645-1.355-3-3-3H11.625L23 6v2h2V6c0-1.125-.957-2.016-2.031-2zM7 11h18c.566 0 1 .434 1 1v13c0 .566-.434 1-1 1H7c-.566 0-1-.434-1-1V12c0-.566.434-1 1-1zm15.5 6a1.5 1.5 0 100 3 1.5 1.5 0 000-3z"/></symbol><symbol viewBox="0 0 32 32" id="youtube"><path d="M16 6c-3.766 0-7.094.39-9.125.688-1.68.246-3.035 1.511-3.344 3.187C3.27 11.301 3 13.387 3 16s.27 4.7.531 6.125c.309 1.676 1.664 2.945 3.344 3.188 2.04.296 5.379.687 9.125.687 3.746 0 7.086-.39 9.125-.688 1.68-.242 3.035-1.511 3.344-3.187.261-1.43.531-3.52.531-6.125s-.266-4.695-.531-6.125c-.309-1.676-1.664-2.941-3.344-3.188C23.094 6.391 19.765 6 16 6zm0 2c3.633 0 6.879.371 8.844.656A1.966 1.966 0 0126.5 10.25c.242 1.32.5 3.277.5 5.75 0 2.469-.258 4.43-.5 5.75a1.957 1.957 0 01-1.656 1.594C22.87 23.629 19.609 24 16 24c-3.61 0-6.875-.371-8.844-.656A1.962 1.962 0 015.5 21.75C5.258 20.43 5 18.477 5 16c0-2.48.258-4.43.5-5.75a1.962 1.962 0 011.656-1.594C9.117 8.371 12.367 8 16 8zm-3 2.281V21.72l1.5-.844 7-4L23 16l-1.5-.875-7-4zm2 3.438L18.969 16 15 18.281z"/></symbol></defs></svg>